<?xml version="1.0" encoding="UTF-8"?><svg id="Layer_1" xmlns="http://www.w3.org/2000/svg" viewBox="0 0 760 475"><defs><style>.cls-1{fill:#af8d4d;}.cls-2{fill:#fff;}.cls-3{fill:#dc6511;}.cls-4{fill:#edd7a9;}.cls-5{fill:#433115;}.cls-6{fill:#e67606;}.cls-7{stroke:#e57709;}.cls-7,.cls-8,.cls-9,.cls-10,.cls-11,.cls-12,.cls-13{fill:none;}.cls-7,.cls-8,.cls-9,.cls-12,.cls-13{stroke-miterlimit:10;}.cls-14,.cls-15{fill:#f4dfac;}.cls-16{fill:#f5af29;}.cls-17{fill:#f4d675;}.cls-18{fill:#e19733;}.cls-19{fill:#cc153b;}.cls-20{fill:#da9873;}.cls-21{fill:#e5c26b;}.cls-8,.cls-22,.cls-23,.cls-15{fill-rule:evenodd;}.cls-8,.cls-12{stroke:#eaae4e;}.cls-24{letter-spacing:-.01em;}.cls-22{fill:#ea525f;}.cls-25{font-family:'Space Grotesk';font-size:69.26px;font-style:italic;font-weight:700;}.cls-25,.cls-26{fill:#422a1a;}.cls-9{stroke:#a48e08;}.cls-27{fill:#dcbd63;}.cls-28{fill:#ebd0a0;}.cls-23{fill:#f77d5c;}.cls-29{fill:#ee4740;}.cls-30{fill:#96ae1a;}.cls-31{isolation:isolate;opacity:.15;}.cls-32{fill:#a48e08;}.cls-33{fill:#e7932e;}.cls-10{stroke:#422a1a;stroke-linecap:round;stroke-width:.5px;}.cls-10,.cls-11{stroke-linejoin:round;}.cls-11{stroke:#edefeb;stroke-width:2px;}.cls-15{opacity:.34;}.cls-34{fill:#423115;}.cls-35{fill:#dc630d;}.cls-36{fill:#eaae4e;}.cls-13{stroke:#f5af29;}.cls-37{fill:#b78877;}.cls-38{fill:#ff7c75;}.cls-39{fill:#e5780a;}</style></defs><path class="cls-15" d="M140.05,76.57c0,3.73-3.02,6.75-6.75,6.75s-6.75-3.02-6.75-6.75,3.02-6.75,6.75-6.75,6.75,3.02,6.75,6.75Zm208.1,2.46c31.6,0,59.96,13.88,79.31,35.88,5.58-1.77,11.52-2.73,17.69-2.73,24.51,0,45.49,15.12,54.12,36.55,18.62,1.98,34.63,12.72,43.81,28.03,11.21-4.05,23.29-6.26,35.9-6.26,58.31,0,105.59,47.27,105.59,105.59,0,3.8-.2,7.56-.6,11.26,26,5.88,45.41,29.11,45.41,56.88,0,32.21-26.11,58.32-58.32,58.32-8.31,0-16.21-1.74-23.36-4.87-18.66,29.84-51.81,49.68-89.59,49.68s-72.25-20.64-90.68-51.47c-14.71,7.78-31.48,12.18-49.28,12.18-26.12,0-50.02-9.48-68.46-25.2-16.03,37.9-53.55,64.49-97.29,64.49-34.72,0-65.52-16.76-84.77-42.62-9.8,18.42-29.19,30.96-51.51,30.96-32.21,0-58.32-26.11-58.32-58.32,0-18.35,8.48-34.72,21.73-45.41,2.74-20.09,15.72-36.93,33.51-45.08,2.21-10.66,7.34-20.26,14.51-27.92-2.25-8.03-3.45-16.49-3.45-25.23,0-48.65,37.23-88.6,84.76-92.92,9.05-20.48,29.54-34.76,53.37-34.76,4.7,0,9.28,.56,13.66,1.61,18.89-17.75,44.32-28.62,72.28-28.62Zm-168.2,54.63c14.92,0,27.01-12.09,27.01-27.01s-12.09-27.01-27.01-27.01-27.01,12.09-27.01,27.01,12.09,27.01,27.01,27.01Zm338.25,5.52c3.73,0,6.75-3.02,6.75-6.75s-3.02-6.75-6.75-6.75-6.75,3.02-6.75,6.75,3.02,6.75,6.75,6.75Z"/><g><path class="cls-8" d="M712.06,326.89c0,32.21-26.11,58.32-58.32,58.32-8.31,0-16.21-1.74-23.36-4.87-18.66,29.84-51.81,49.68-89.59,49.68s-72.25-20.64-90.68-51.47c-14.71,7.78-31.48,12.18-49.28,12.18-26.12,0-50.02-9.48-68.46-25.2-16.03,37.9-53.55,64.49-97.29,64.49-34.72,0-65.52-16.76-84.77-42.62-9.8,18.42-29.19,30.96-51.51,30.96-32.21,0-58.32-26.11-58.32-58.32,0-18.35,8.48-34.72,21.73-45.41"/><path class="cls-8" d="M481.95,131.4c18.62,1.98,34.63,12.72,43.81,28.03,11.21-4.05,23.29-6.26,35.9-6.26,58.31,0,105.59,47.27,105.59,105.59"/><path class="cls-8" d="M110.23,241.63c-2.25-8.03-3.45-16.49-3.45-25.23,0-48.65,37.23-88.6,84.76-92.92,9.05-20.48,29.54-34.76,53.37-34.76,4.7,0,9.28,.56,13.66,1.61,18.89-17.75,44.32-28.62,72.28-28.62,31.6,0,59.96,13.88,79.31,35.88"/></g><path id="ek3cmr1dfs0d43" class="cls-20" d="M395.11,150.67c1.47,1.06,2.31,2.87,2.91,4.13,.6,1.26,.32,1.75,.52,2.03,.2,.28,1.34,.69,2.07,.97,.89,.34,1.86,.53,1.85,1.24-.01,.72-2.29,1.56-2.29,1.56-.02-.07,.4,.49,1.16,3.99,.43,1.98,.1,3.05-.73,3.97-.87,.97-2.96,1.83-2.96,1.83l-1.12,11.89s-.47,2.28-3.71,3.07c-3.24,.79-11.1-1.51-11.1-1.51,0,0,2.85-7.38,3.2-9.33,.35-1.94,.53-4.9,.53-4.9,0,0-1.93-12.77-.3-16.13,1.63-3.36,9.96-2.83,9.96-2.83Z"/><path id="ek3cmr1dfs0d44" class="cls-26" d="M396.52,158.33c.26-.07,.34-.3,.23-.69s-.29-.54-.55-.47-.34,.3-.23,.68,.29,.54,.55,.47Z"/><path id="ek3cmr1dfs0d45" class="cls-35" d="M393.67,162.43c-.24-.84,.02-1.66,.6-1.83,.57-.17,1.24,.38,1.48,1.22,.24,.84-.02,1.66-.6,1.83-.57,.17-1.24-.38-1.48-1.22Z"/><path id="ek3cmr1dfs0d46" class="cls-10" d="M397.09,155.06c-2.24-.09-3.36,1.02-3.82,1.48"/><path id="ek3cmr1dfs0d47" class="cls-10" d="M401.01,163.94c-.53,.02-2.75-.25-3.21-.36"/><path id="ek3cmr1dfs0d48" class="cls-10" d="M397.38,170.52c-2.47,.65-5.52-.56-6.41-1.52"/><path id="el5wbvr3h3ztc" class="cls-4" d="M154.13,311.35s-8.07,1.15-3.48,18.82c4.6,17.67,8.46,26.75,8.46,26.75,0,0,.62,4.01-2.62,3.89s-9.81-2.68-12.04,.84c-2.24,3.53-.27,7.97,4.81,12.52,5.09,4.55,15.84,14.91,16.81,15.85,.97,.95,1.68,2.84-.53,3.16-2.21,.31-17.91-1.55-18.36,5.96-.45,7.51,15.83,17.85,17.59,19.02,1.75,1.17,2.03,2.08,1.64,3.1s-5.62-.09-10.12-.42c-4.5-.33-9.76,.08-9.63,4.43s8.67,15.34,33.52,23.45l11.76,3,8.65-8.59c17.42-19.49,19.29-33.27,17.22-37.11-2.08-3.84-6.84-1.54-10.57,1-3.72,2.54-7.69,6.12-8.53,5.44s-1.06-1.62-.13-3.51,9.78-18.95,5.69-25.27c-4.09-6.32-16.84,3.17-18.91,4.04s-2.42-1.18-2.06-2.46,4.47-15.67,6.63-22.16c2.16-6.48,1.69-11.27-2.12-13.27-3.81-2-8.07,3.66-10.81,5.38-2.74,1.72-4.21-2.06-4.21-2.06,0,0-1.27-9.8-6.21-27.39-4.94-17.59-12.65-14.42-12.65-14.42"/><path id="elmezsd485pee" class="cls-18" d="M191.93,454.66c-3.55-12.93-9.48-36.01-14.68-55.83-5.2-19.82-9.91-37.71-13.41-50.67-1.74-6.46-3.16-11.7-4.14-15.33l-1.13-4.18-.28-1.08-.09-.38s.05,.12,.12,.37l.32,1.07c.27,.95,.67,2.36,1.19,4.15,1.03,3.61,2.48,8.84,4.26,15.3,3.55,12.93,8.31,30.84,13.5,50.65,5.19,19.8,11.09,42.91,14.56,55.86"/><path id="elmuiriomfeb" class="cls-18" d="M153.53,365.64c.27,.12,.52,.26,.77,.42,.49,.28,1.18,.72,2.04,1.26,1.7,1.09,4,2.64,6.52,4.42l6.42,4.55,1.95,1.37c.25,.15,.49,.33,.7,.53-.27-.11-.53-.24-.78-.41-.49-.28-1.18-.72-2.03-1.27-1.69-1.11-3.98-2.7-6.49-4.46l-6.47-4.51-1.9-1.36c-.27-.14-.52-.32-.74-.54Z"/><path id="eln7ktwojf9at" class="cls-18" d="M172.91,377.61c-.09-.06,2.92-4.96,6.72-10.94,3.8-5.99,6.96-10.79,7.04-10.69s-2.92,4.95-6.72,10.94-6.96,10.76-7.04,10.7Z"/><path id="eltyx3uo0eys" class="cls-18" d="M179.51,408.37c.19-.23,.41-.44,.64-.63l1.83-1.6c1.54-1.36,3.66-3.25,5.92-5.42,2.26-2.17,4.25-4.2,5.69-5.69l1.7-1.75c.19-.23,.41-.44,.65-.62-.16,.25-.34,.49-.55,.71-.37,.45-.95,1.07-1.6,1.84-1.37,1.54-3.34,3.6-5.62,5.77s-4.42,4.04-6.01,5.34c-.8,.65-1.45,1.18-1.9,1.52-.23,.21-.48,.38-.76,.52Z"/><path id="ell0aoa21q1zd" class="cls-18" d="M159.6,401.46c.28,.03,.55,.09,.81,.19l2.15,.66c1.81,.57,4.31,1.38,7.06,2.3,2.75,.92,5.23,1.78,7.03,2.42l2.11,.78c.27,.08,.52,.19,.76,.33-.27-.04-.54-.1-.81-.2l-2.15-.65c-1.82-.58-4.31-1.39-7.07-2.31s-5.23-1.77-7.02-2.42l-2.11-.77c-.26-.08-.52-.19-.76-.33Z"/><path id="elmr7zgf289dl" class="cls-18" d="M161.98,429.31c.35,.06,.7,.14,1.03,.26l2.76,.83c2.33,.72,5.53,1.74,9.08,2.84,3.54,1.1,6.73,2.21,9.03,2.99l2.73,.95c.33,.1,.64,.24,.95,.4-.35-.05-.7-.14-1.03-.26l-2.72-.81c-2.33-.72-5.53-1.74-9.08-2.84-3.54-1.1-6.73-2.21-9.03-2.99l-2.73-.95c-.34-.11-.67-.25-.99-.43Z"/><path id="el0yu65vg3mkrh" class="cls-18" d="M187.04,437.26c.24-.3,.51-.57,.8-.81l2.25-2.12c1.9-1.8,4.49-4.28,7.3-7.12s5.27-5.45,7.04-7.36l2.1-2.27c.24-.29,.51-.55,.81-.8-.21,.31-.44,.61-.69,.89-.46,.57-1.16,1.37-2.02,2.35-1.72,1.96-4.17,4.61-6.97,7.45-2.8,2.83-5.47,5.27-7.36,7.06-.95,.86-1.77,1.56-2.33,2.04-.28,.26-.59,.49-.91,.7Z"/><path id="elli5m1zztnld" class="cls-28" d="M562.83,455.61c-19.64-10.87-27.03-35.06-29.31-57.4-.38-3.73-1.29-7.58-.08-11.08,1.21-3.5,4.74-6.24,8.08-5.11,2.76,.95,4.31,3.99,6.11,6.44,2.34,3.23,5.56,5.72,9.27,7.19,2.38,.95,5.21,1.3,7.22-.28,2.76-2.19,2.51-6.63,2-10.35l-2.9-20.63c-.52-3.7-1.04-7.47-.44-11.12,.61-3.65,2.54-7.24,5.69-8.67,3.15-1.43,7.5,0,8.67,3.54,.34,1.51,.58,3.04,.72,4.59,.3,1.52,1.19,3.12,2.62,3.36s2.68-.95,3.56-2.22c3.07-4.23,4.84-9.36,6.45-14.45,1.61-5.09,3.16-10.28,5.85-14.79s6.73-8.36,11.63-9.33,10.62,1.55,12.57,6.54c1.94,4.98-.17,10.71-2.7,15.35-3.7,6.82-8.36,13.08-13.84,18.57-1.1,.89-1.9,2.1-2.27,3.46-.42,2.56,2.09,4.74,4.48,5.2,2.69,.56,5.45-.11,8.19-.14s5.83,.83,7.21,3.42c1.9,3.57-.49,7.94-3.05,10.94-5.06,5.95-11.14,10.96-17.96,14.79-2.41,1.35-4.97,2.59-6.76,4.74s-2.59,5.69-.99,8.11c1.59,2.43,4.88,2.84,7.47,1.9,2.59-.95,4.74-2.77,7.16-4.14,4.48-2.57,10.66-3.06,14.29,.9,2.39,2.61,3.11,6.63,2.56,10.18-.69,3.51-2.05,6.85-4.01,9.85-6.32,10.59-15.03,19.62-25.49,25.23-10.46,5.6-20.52,8.11-32.03,5.34"/><path id="el5f8x55xv52u" class="cls-18" d="M566.32,440.94c1.81-12.57,4.31-25.03,7.49-37.33,.82-3.26,1.64-6.49,2.44-9.67,.8-3.17,1.6-6.32,2.57-9.34,1.85-5.78,4-11.46,6.45-17.01,2.3-5.3,4.67-10.23,6.92-14.83,2.25-4.6,4.43-8.84,6.57-12.61,3.34-5.95,7.14-11.62,11.37-16.96,1.48-1.9,2.67-3.3,3.5-4.25l.95-1.07c.1-.13,.22-.24,.34-.35-.08,.14-.18,.27-.28,.4l-.9,1.12c-.79,.95-1.95,2.43-3.4,4.33-4.13,5.4-7.86,11.1-11.14,17.06-2.11,3.79-4.25,8.03-6.49,12.62-2.24,4.6-4.61,9.56-6.88,14.83-2.43,5.53-4.56,11.19-6.4,16.95-.95,3.01-1.74,6.13-2.55,9.31-.81,3.17-1.61,6.41-2.44,9.67-3.16,12.27-5.67,24.7-7.52,37.23"/><path id="elp25ppxyt3m" class="cls-18" d="M578.99,384.55c-.24-.49-.42-1-.55-1.53-.32-.99-.74-2.45-1.23-4.26-.95-3.61-2.18-8.64-3.48-14.21-1.3-5.57-2.57-10.56-3.6-14.14-.51-1.79-.95-3.24-1.24-4.24-.19-.51-.33-1.04-.42-1.57,.27,.47,.49,.97,.64,1.49,.38,.95,.88,2.4,1.44,4.18,1.15,3.56,2.49,8.53,3.79,14.13s2.43,10.42,3.3,14.21c.41,1.72,.76,3.16,1.03,4.31,.15,.53,.26,1.08,.31,1.63Z"/><path id="elqc4mxzr61bb" class="cls-18" d="M622.2,369.55c-.56,.22-1.15,.38-1.74,.47-1.13,.27-2.76,.64-4.74,1.18-4,1.03-9.48,2.66-15.46,4.74-5.98,2.08-11.29,4.24-15.1,5.91-1.9,.81-3.43,1.53-4.49,2.01-.53,.28-1.09,.51-1.67,.69,.48-.37,1.01-.69,1.56-.95,1.02-.56,2.53-1.34,4.42-2.22,4.92-2.29,9.95-4.33,15.08-6.11,5.1-1.81,10.29-3.33,15.55-4.57,2.02-.46,3.67-.77,4.81-.95,.58-.13,1.18-.2,1.77-.21Z"/><path id="el1ht5npfh6i2" class="cls-18" d="M566.75,439.98s-.15-.17-.39-.53l-.95-1.62c-.85-1.4-2.05-3.47-3.48-6.04-2.84-5.15-6.63-12.39-10.69-20.42-4.06-8.04-7.75-15.31-10.52-20.52l-3.3-6.14-.89-1.69c-.12-.19-.21-.39-.27-.61,.15,.16,.28,.34,.39,.54l.95,1.61c.85,1.4,2.05,3.47,3.48,6.05,2.84,5.15,6.63,12.38,10.69,20.42,4.06,8.05,7.75,15.3,10.52,20.51l3.3,6.15,.89,1.67c.12,.19,.21,.4,.27,.62Z"/><path id="el18iv0yehq41" class="cls-18" d="M623.02,411.51c-.17,.14-.35,.25-.55,.34l-1.63,.84-6.04,3.06c-5.09,2.59-12.07,6.24-19.79,10.3s-14.74,7.65-19.9,10.12c-2.57,1.24-4.65,2.22-6.11,2.84l-1.68,.73c-.39,.16-.6,.24-.61,.21,.17-.13,.35-.24,.55-.33l1.63-.85,6.03-3.06c5.08-2.59,12.07-6.24,19.79-10.3,7.71-4.06,14.74-7.65,19.9-10.12,2.57-1.23,4.66-2.22,6.12-2.84l1.68-.73c.19-.1,.4-.17,.61-.21Z"/><path class="cls-19" d="M385.94,238.78s5.77,1.33,5.77,1.33c4.32-2.71-13.21-9.63-9.45-13.04,0,0,0,0,0,0-.37-.17-.16-1.45-.54-1.58-6.21-2.28-12.8-3.85-18.04-7.97-3.2-2.52-6.37-5.09-8.63-8.57-2.95-2.86-4.57-6.59-6.59-10.06-2.84-4.9-5.29-10.06-9.47-14.04-1.92-1.84-3.98-3.56-7.13-4.24,1.52,2.24,1.73,7.44,1.73,7.44l-12.82-.09s10.57,7.18,14.35,11.2c5.55,5.89,9.19,13.03,13,20.05,0,0,0,0,0,0,6.15,11.07,37.51,21.43,37.82,19.6Z"/><path class="cls-35" d="M379.78,209c7.13,6.78,49.2,1.52,57.03,1.29,6.43-.12,33.66-29.57,41.72-38.8l-3.27-2.69-40.32,31.2s-48.5-16.71-55.75-9.12c-7.13,7.6-6.54,11.34,.58,18.12Z"/><path class="cls-37" d="M475.15,168.67l3.27,2.69c1.75-1.87,2.69-3.04,2.69-3.04l-2.22-2.45-3.74,2.8Z"/><path class="cls-37" d="M379.78,294.08c-3.39,16.6-4.91,48.97-11.69,63.7l-63.58-18.23-2.92,4.79s63.46,36.35,72.58,33.19c9.7-3.39,33.07-64.63,36.11-81.81l-30.5-1.64Z"/><path class="cls-33" d="M370.66,197.66c0,11.92,9.12,96.42,9.12,96.42h11.57s15.78-2.8,15.78-2.8c0,0,10.17-77.84,10.17-89.76,0-11.92-18.58-25.83-25.95-25.83-7.48,0-20.69,10.05-20.69,21.97Z"/><path class="cls-37" d="M379.78,294.08c-8.18,32.96,40.44,29.22,67.55,30.97l-31.79,79.01,4.09,4.21s53.64-79.01,52.94-89.06c-.82-10.17-46.16-19.87-65.1-30.62l-27.7,5.49Z"/><path class="cls-35" d="M400.46,328.53c5.08-13.55,9.07-26.21,10.22-32.71l-31.23-1.68c-1.39,6.83-2.48,16.26-3.73,26.09,8.01,3.46,16.38,5.87,24.74,8.3Z"/><path class="cls-33" d="M440.7,301.14c-12.19-4.32-24.94-8.71-33-13.29l-28.32,5.62c-6.8,27.38,24.75,29.99,51.69,30.97,3.22-7.76,6.36-15.56,9.63-23.29Z"/><path class="cls-37" d="M415.54,403.94c-2.1,1.99-3.39,3.27-6.19,5.96-2.69,2.57-1.99,4.09,.35,6.43,2.34,2.45,14.84,15.43,14.84,15.43,0,0,3.04-.23,.35-4.44-2.69-4.09-5.26-19.05-5.26-19.05l-4.09-4.32Z"/><path class="cls-37" d="M304.75,339.42c-2.22-1.4-3.86-2.34-6.9-4.21-3.04-1.75-4.21-.82-5.84,1.87-1.64,2.69-10.52,17.3-10.52,17.3,0,0,.93,2.57,4.09-.82,3.16-3.39,16.13-9.35,16.13-9.35l3.04-4.79Z"/><path class="cls-26" d="M383.23,153.71c.77-1.61,3.16-4.11,5.9-4.87,2.32-.6,4.02-.19,6.18,.96,2.04,1.13-.07,1.9-1.46,2.34-1.48,.29-4.68,.81-6.45,1.28-1.78,.47,1.91,3.79-.41,4.39-2.32,.6,.17,15.93-2.27,16.49-6,1.51-3.94-15.67-1.49-20.6Z"/><path class="cls-26" d="M389.13,148.84c-.69,2.78-5.76,6.27-5.76,6.27l2.1,20.41c-6.48,4-7.76-2.22-9.87-2.08-2.14,.27-2.9-4.32-5.6-4.02-2.72,.44-2.81-2.64-1.67-3.52,1.17-1.02-2.23-2.8-4.15-2.9-1.9-.23-2.01-3.17-.14-3.5,8.47-.7,22.48-9.37,25.1-10.66Z"/><polygon class="cls-33" points="399.88 178.49 383.28 178.23 384.21 175.07 398.04 175.33 399.88 178.49"/><ellipse class="cls-31" cx="349.4" cy="435.34" rx="98.06" ry="1.99"/><path class="cls-35" d="M292.34,334.07c-6.03,2.13-19.21,22.87-15.73,24,5.81,1.88,18.99-10.55,18.99-10.55,1.44-3.82,2.87-7.39,5.86-10.03-2.23-1.6-6.55-4.33-9.12-3.42Z"/><path class="cls-2" d="M292.83,350.31c.63-1.62-.53-3.73-1.78-4.73-.33-.26-.66,.3-.34,.55,1.04,.83,2.01,2.67,1.49,4-.15,.39,.48,.56,.63,.18Zm-2.57,2.03c.34-1.6-.18-3.25-1.38-4.37-.31-.29-.77,.17-.47,.45,1.04,.95,1.5,2.37,1.22,3.74-.07,.39,.55,.58,.62,.17Zm-2.49,2.16c.49-1.54-.25-3.35-1.22-4.54-.26-.33-.73,.13-.47,.45,.83,1.01,1.48,2.61,1.07,3.91-.14,.39,.49,.57,.62,.17Z"/><path class="cls-2" d="M296.03,340.86c.89-3.23-4.1-4.62-5-1.4-.9,3.23,4.1,4.62,5,1.4Z"/><path class="cls-35" d="M407.57,413.03c.35,6.28,16.29,24.45,18.32,21.48,3.38-4.96-4.73-20.85-4.73-20.85-3.21-2.42-6.19-4.75-7.85-8.3-2.12,1.67-5.89,4.99-5.74,7.67Z"/><path class="cls-2" d="M423.12,417.05c-1.35-1.04-3.67-.53-4.95,.38-.34,.24,.1,.7,.43,.47,1.07-.75,3.08-1.16,4.18-.3,.32,.25,.65-.3,.33-.55Zm1.2,2.99c-1.41-.76-3.12-.72-4.51,.09-.36,.21-.06,.77,.29,.57,1.18-.72,2.65-.76,3.87-.12,.37,.18,.71-.36,.35-.55h0Zm1.35,2.96c-1.32-.89-3.23-.69-4.62-.1-.38,.16-.07,.74,.29,.57,1.19-.5,2.87-.68,3.99,.07,.34,.21,.68-.33,.34-.55h0Z"/><path class="cls-2" d="M415.08,411.42c-2.8-1.74-5.5,2.6-2.7,4.34,2.8,1.74,5.5-2.6,2.7-4.34Z"/><path class="cls-29" d="M325.06,276.45c10.98-3.24,20.74-8.78,29.93-15.46,.54-.4,1.16-.69,1.75-1.03h0s0,0,0,0c6.18-4.49,12.69-8.13,20.66-7.83,4.65,.18,8.98,1.74,13.19,3.58,7.3,3.18,16.71,5.83,23.1,4.93,5.07-.71,10.35-5.71,8.82-11.75-.94-3.71-2.91-4.95-9.06-7.51-.5-.21,.88,3.98-5.55,3.85-4.67-.59-10.81-3.62-16.21-5.12-6.92-1.92-13.96-2.81-21.11-1.17-5.22,1.19-9.89,3.57-14.36,6.44-1.02,.65-6.88,4.76-8.77,6.19-5.91,4.48-11.87,8.92-18.89,11.64-5.67,2.19-11.52,3.27-17.59,3.03-20.63-.81-33.25-14.51-51.63-22.91-11.65-5.32-38.58-10.15-38.58-10.15l9.58,9.36-12.87,7.3s15.69-1.94,22.72-.91c8.57,1.26,16.37,4.63,23.63,9.26,10.05,6.4,19.48,13.83,30.77,18.14,4.72,1.46,9.55,2.4,14.48,2.37,5.4-.04,10.73-.7,15.96-2.24Z"/><g><path id="Combined-Shape-Copy-4" class="cls-23" d="M699.27,331.83c.94,8.5,.88,15.86,9.05,20.26,4.65,2.5,5.55,1.86,9.67,2.69-.39-8.18-2.16-17.33-10.7-20.67-2.59-1.01-5.35-1.52-8.03-2.27Z"/><path id="Combined-Shape-Copy-7" class="cls-22" d="M643.76,377.62c4.81-1.41,9.06-2.12,10.77-7.34,.97-2.96,.5-3.42,.56-5.91-4.68,1.06-9.78,3.02-10.84,8.34-.32,1.61-.33,3.27-.49,4.91Z"/></g><path id="ek3cmr1dfs0d50" class="cls-20" d="M387.35,159.29c-.61-1.29-1.13-2.5-2.3-2.82-1.17-.32-2.66,.32-2.9,2.02-.24,1.69,.89,4.2,1.9,4.96,1.01,.77,1.73,1.05,2.58,.89l.72-5.04Z"/><path id="ek3cmr1dfs0d51" class="cls-10" d="M384.09,158.32c.52,.65,1.98,3.55,2.14,3.99"/><path id="ek3cmr1dfs0d52" class="cls-9" d="M491.69,313.56s4.62,1.56,9.05-1.55c4.43-3.1,4.82-10.33,.47-12.29-2.4-1.08-5.81,2.02-1.53,5.95,4.12,3.79,12.29-1.07,12.56-8.97"/><path id="ek3cmr1dfs0d61" class="cls-16" d="M238.83,216.53c-1.84,0-3.34-1.49-3.34-3.34s1.49-3.34,3.34-3.34,3.34,1.49,3.34,3.34-1.49,3.34-3.34,3.34Z"/><path id="ek3cmr1dfs0d66" class="cls-38" d="M205.11,375.71c-.37-2.27,1.17-4.41,3.44-4.78,2.27-.37,4.41,1.17,4.78,3.44,.37,2.27-1.17,4.41-3.44,4.78-2.27,.37-4.41-1.17-4.78-3.45Z"/><path class="cls-35" d="M336.3,277.25l4.44,.35,12.04-49.44s47.1-27.93,47.1-38.33c0-10.52-3.04-12.86-12.86-12.86-9.7,0-36.81,35.53-42.66,45-5.84,9.47-7.13,42.07-8.06,55.28Z"/><path class="cls-37" d="M339.34,282.74l1.4-5.26-4.44-.35c-.23,3.27-.35,5.38-.35,5.38l3.39,.23Z"/><g><line class="cls-13" x1="260.8" y1="345.57" x2="267.05" y2="345.57"/><line class="cls-13" x1="242.9" y1="345.57" x2="251.18" y2="345.57"/><line class="cls-13" x1="256.63" y1="339.67" x2="275.19" y2="339.67"/><line class="cls-13" x1="245.49" y1="339.67" x2="251.18" y2="339.67"/><line class="cls-13" x1="261.46" y1="333.74" x2="277.75" y2="333.74"/><line class="cls-13" x1="237.2" y1="333.74" x2="255.3" y2="333.74"/></g><g><path class="cls-13" d="M389.03,417.31c1.41,3.14,2.37,7.24,2.76,12.18,1.79-11.98,11.66-14.03,11.66-14.03"/><path class="cls-13" d="M366.73,413.59c.58,4.17,.83,9.42,.96,15.89,2.56-21.85,14.42-25.25,20.57-13.71"/><path class="cls-13" d="M365.64,408.27c.19,.7,.45,1.47,.58,2.24"/><path class="cls-13" d="M352.31,397.7c6.66,1.22,10.32,3.65,12.43,8.33"/></g><g><line class="cls-12" x1="172.78" y1="241.26" x2="194.63" y2="241.26"/><line class="cls-12" x1="183.65" y1="230.04" x2="187.97" y2="230.04"/><line class="cls-12" x1="192.3" y1="230.04" x2="198.84" y2="230.04"/><line class="cls-12" x1="169.16" y1="249.32" x2="172.78" y2="249.32"/><line class="cls-12" x1="176.52" y1="249.32" x2="202.82" y2="249.32"/></g><path id="path1076" class="cls-35" d="M564.84,439.2c.82-8.6,0-17.27-2.42-25.56-1.89-6.52-5.66-25.51-16.65-20.39-2.24,1.23-3.74,3.48-4.02,6.03-1.91,12.45,6.61,26.6,11.77,37.39-3.25-4.98-7.35-9.34-12.1-12.91-2.15-1.62-5.31-3.04-7.34-1.27-1.15,1.17-1.52,2.9-.95,4.44,.58,1.5,1.48,2.85,2.65,3.96,5.26,5.64,11.55,10.24,18.51,13.55-2.58,1.26-5.36-1.06-8.04-2.14-2.26-.96-4.83-.81-6.95,.4-2.12,1.29-3.19,3.76-2.68,6.18,.61,2.31,2.73,3.87,4.83,5.04,6.67,3.7,14.23,5.49,21.87,5.17,8.6-.4,14.13-7.82,17.58-14.92,2.26-4.64,9.5-18.28,4.83-22.77-5.93-5.66-12.48,9.31-13.7,12.98,.71-1.8,1.12-3.72,1.2-5.66,.11-.75-.09-1.5-.55-2.09-4.01-4-7.55,11.43-7.02,13.76l-.82-1.17Z"/><path id="path1088" class="cls-32" d="M198.9,443.1c.37-1.64-2.12-12.44-4.92-9.64-.32,.42-.46,.95-.37,1.47,.05,1.36,.34,2.7,.83,3.96-.84-2.57-5.43-13.05-9.58-9.09-3.28,3.13,1.8,12.69,3.38,15.94,2.41,4.97,6.29,10.17,12.31,10.45,5.34,.22,10.65-1.03,15.31-3.62,1.46-.82,2.96-1.91,3.39-3.52,.35-1.69-.4-3.44-1.88-4.34-1.5-.84-3.3-.95-4.87-.28-1.87,.76-3.81,2.38-5.63,1.51,4.89-2.33,9.28-5.54,12.97-9.49,.82-.77,1.45-1.73,1.86-2.77,.4-1.09,.14-2.3-.67-3.12-1.43-1.24-3.63-.23-5.14,.9-3.32,2.5-6.18,5.56-8.47,9.03,3.96-8.26,7.97-16.71,9.05-25.81,.65-5.52-3.16-10.12-7.91-5.7-2.85,2.64-4.22,6.99-5.64,10.48-2.97,7.21-4.15,15.04-3.41,22.8l-.57,.83Z"/><path class="cls-7" d="M271.84,179.48c4.02,2.79,9.3,2.97,13.5,.46,1.12-.7,2.17-1.65,2.55-2.91s-.17-2.86-1.41-3.29c-1.41-.49-2.96,.78-3.25,2.24s.33,2.95,1.12,4.22c3.25,5.2,9.75,8.15,15.81,7.19"/><path class="cls-28" d="M462.67,126.42c-2.01-.78-5.54-2.91-7.06-8.19-.1-.36-.62-.39-.71-.03-.78,2.14-2.85,6.25-7.74,7.64-.36,.1-.39,.58-.03,.71,2.1,.81,6.09,3.04,7.22,8.16,.06,.36,.58,.39,.71,.06,.87-2.23,3.08-6.38,7.57-7.61,.32-.13,.36-.62,.03-.74h0Z"/><path class="cls-6" d="M525.55,225.57c-1.09-.42-3.02-1.59-3.85-4.47-.05-.19-.34-.21-.39-.02-.42,1.16-1.55,3.41-4.22,4.17-.19,.05-.21,.32-.02,.39,1.15,.44,3.32,1.66,3.94,4.45,.04,.19,.32,.21,.39,.04,.48-1.22,1.68-3.48,4.13-4.15,.18-.07,.19-.34,.02-.41h0Z"/><circle class="cls-29" cx="182.49" cy="144.97" r="6.6"/><circle class="cls-29" cx="618.3" cy="202.07" r="5.54"/><path class="cls-17" d="M595.98,278.58c-1.2-.45-3.34-1.67-4.3-4.82-.07-.21-.36-.22-.43-.01-.44,1.29-1.62,3.76-4.54,4.65-.21,.07-.22,.36-.01,.43,1.26,.46,3.68,1.74,4.41,4.78,.06,.22,.36,.23,.43,.02,.5-1.35,1.76-3.85,4.43-4.64,.21-.06,.22-.35,.01-.42h0Z"/><path class="cls-17" d="M230.22,171.25c-1.2-.45-3.34-1.67-4.3-4.82-.07-.21-.36-.22-.43-.01-.44,1.29-1.62,3.76-4.54,4.65-.21,.07-.22,.36-.01,.43,1.26,.46,3.68,1.74,4.41,4.78,.06,.22,.36,.23,.43,.02,.5-1.35,1.76-3.85,4.43-4.64,.21-.06,.22-.35,.01-.42h0Z"/><circle class="cls-11" cx="221.86" cy="155.06" r="2.63"/><circle class="cls-14" cx="299.43" cy="115.19" r="33.29"/><g><path class="cls-1" d="M151.72,405.98s-2.1,2.1-2.57,10.28c-.47,8.18,.82,18.12,5.14,22.67,4.32,4.56,7.13,6.19,8.41,5.96s3.27-.82,4.79-2.8c1.52-1.87,3.74-6.9,2.69-12.15-1.75-9.23-3.27-13.32-6.31-18.93-3.51-6.54-11.34-6.08-12.15-5.03Z"/><path class="cls-1" d="M162.47,445.13c-1.52,0-4.44-2.1-8.18-6.08-4.44-4.67-5.61-14.84-5.14-22.79,.23-4.21,.93-6.78,1.4-8.3,.58-1.52,1.05-2.1,1.17-2.1,.35-.47,1.75-.7,3.39-.58,1.87,.12,6.31,.93,8.88,5.73,3.16,5.96,4.56,10.28,6.31,18.93,1.05,5.14-1.05,10.17-2.69,12.27-1.52,1.87-3.51,2.45-4.79,2.8-.12,0-.23,.12-.35,.12Zm-8.18-39.62c-1.29,0-2.22,.23-2.45,.58h0s-2.1,2.22-2.45,10.28c-.35,7.95,.7,18,5.14,22.56,3.86,3.97,6.9,6.19,8.3,5.96,1.29-.35,3.27-.93,4.67-2.69,1.64-2.1,3.62-7.01,2.69-12.04-1.75-8.77-3.16-12.97-6.31-18.93-2.45-4.67-6.9-5.49-8.77-5.61-.35-.12-.58-.12-.82-.12Z"/><path class="cls-21" d="M146,406.68s-14.84-.47-12.15,19.99c2.69,20.45,12.27,21.39,12.27,21.39,0,0,1.29,.47,4.09,.12l2.92-.23s-7.36-6.78-9.23-14.38-2.34-12.39-1.87-15.19c.47-2.8,3.97-11.69,3.97-11.69Z"/><path class="cls-21" d="M148.45,448.4c-1.52,0-2.22-.23-2.34-.23-.23,0-2.57-.35-5.26-3.04-4.56-4.67-6.43-12.62-7.13-18.47-.93-7.25,.23-12.74,3.39-16.25,3.62-4.09,8.88-3.97,8.88-3.97h.12v.12c0,.12-3.51,8.88-3.97,11.69s.12,7.71,1.99,15.19c1.75,7.48,9.12,14.26,9.12,14.38l.12,.12-3.16,.35c-.7,.12-1.29,.12-1.75,.12Zm-2.57-41.61c-.82,0-5.38,.23-8.65,3.86-3.16,3.51-4.21,8.88-3.27,16.01,.7,5.84,2.57,13.67,7.13,18.35,2.69,2.69,5.03,2.92,5.14,3.04h0s1.29,.35,4.09,.12l2.69-.23c-1.05-1.05-7.36-7.36-9-14.26-1.99-7.6-2.57-12.51-2.1-15.43,.47-2.57,3.51-10.4,3.97-11.45Z"/><path class="cls-27" d="M146.81,406.33s12.51-6.66,19.17,13.21c6.66,19.87-1.05,24.66-1.05,24.66,0,0-1.05,.47-3.51,1.87-1.75,.93-3.51,1.4-3.51,1.4,0,0,3.97-9.58,2.22-17.41-1.75-7.71-3.27-12.51-4.91-14.84-1.64-2.34-8.41-8.88-8.41-8.88Z"/><path class="cls-27" d="M157.8,447.7l.12-.23s1.05-2.45,1.75-5.73c.7-3.04,1.29-7.6,.47-11.57-1.87-8.18-3.39-12.62-4.91-14.84-1.64-2.34-8.3-9-8.41-9h-.12s.12-.12,.12-.12c0,0,4.21-2.22,9-.23,4.44,1.75,7.95,6.31,10.4,13.56,1.99,5.73,3.86,13.67,1.99,19.87-1.17,3.74-3.04,4.91-3.16,5.03,0,0-1.05,.47-3.51,1.87-1.75,.93-3.51,1.4-3.51,1.4h-.23Zm-10.75-41.26c.82,.82,6.78,6.78,8.3,9,1.64,2.22,3.04,6.54,4.91,14.84,1.64,7.13-1.52,15.89-2.1,17.3,.47-.12,1.99-.58,3.27-1.29,2.34-1.4,3.51-1.87,3.51-1.87,0,0,1.99-1.29,3.04-4.91,1.87-6.08-.12-14.02-1.99-19.75-2.45-7.25-5.96-11.69-10.28-13.44-4.21-1.87-7.95-.23-8.65,.12Z"/><path class="cls-21" d="M144.71,407.03s-5.14,3.39-5.73,12.04c-.47,8.53,.7,19.05,5.49,23.84,4.79,4.79,7.95,6.54,9.23,6.19,1.29-.35,3.74-.47,5.49-2.57,1.75-2.1,4.67-7.95,3.04-13.44-1.64-5.49-3.27-15.78-7.13-21.27s-9.47-5.96-10.4-4.79Z"/><path class="cls-17" d="M144.83,406.79s-4.44,3.27-4.67,11.8c-.23,8.53,1.05,19.05,5.49,23.84s7.13,6.66,8.3,6.43,3.27-.35,4.79-2.34c1.52-1.99,3.39-7.6,2.34-13.21-1.99-9.7-3.27-15.78-6.9-21.27-3.62-5.49-8.65-6.31-9.35-5.26Z"/><path class="cls-30" d="M146.7,407.03c-.35,0-1.52-.23-1.52-.23,0,0,1.05-6.08,2.8-6.78,.35-.12,1.29,1.4,1.29,1.4l-.47,4.91c-.12,0,1.29,.7-2.1,.7Z"/><g><path class="cls-33" d="M171.59,421.52s-14.14-3.04-16.25,14.02c-2.1,17.06,7.01,19.63,7.01,19.63,0,0,1.05,.58,3.97,.93l2.8,.35s-5.49-6.78-5.61-13.32,.47-10.52,1.64-12.74c1.05-2.34,6.43-8.88,6.43-8.88Z"/><path class="cls-33" d="M169.37,456.47l-3.04-.35c-2.69-.35-3.86-.82-3.97-.93-.23,0-2.34-.7-4.32-3.39-1.87-2.57-3.74-7.36-2.69-16.25,.7-5.61,2.69-9.58,6.08-12.04,4.67-3.27,10.17-2.1,10.28-2.1h.12l-.12,.12c0,.12-5.38,6.54-6.43,8.77-1.17,2.22-1.64,6.19-1.64,12.74s5.49,13.21,5.61,13.32l.12,.12Zm-.23-35.06c-1.99,0-5.03,.35-7.71,2.34-3.27,2.34-5.26,6.31-5.96,11.8-.58,4.91-.58,11.57,2.69,16.13,1.99,2.69,4.21,3.39,4.21,3.39h0s1.05,.58,3.86,.82l2.57,.23c-.93-1.17-5.38-7.36-5.49-13.21,0-6.54,.47-10.52,1.64-12.74,1.05-1.99,5.61-7.71,6.43-8.65-.23,0-1.05-.12-2.22-.12Z"/></g><g><path class="cls-36" d="M180.36,421.64s-3.04,1.52-5.61,8.3c-2.57,6.9-3.62,15.43,.35,19.99,3.97,4.56,6.78,6.43,8.3,6.43s3.97-.23,6.31-1.64c2.22-1.4,6.08-5.26,6.19-9.82,.23-8.06-.47-11.8-2.57-17.06-2.57-6.08-11.8-7.01-12.97-6.19Z"/><path class="cls-36" d="M183.28,456.7c-1.75,0-4.79-2.45-8.3-6.54-3.97-4.67-2.8-13.44-.35-20.22,2.45-6.78,5.38-8.3,5.61-8.41,.7-.47,3.39-.35,5.96,.47,4.67,1.52,6.43,4.32,7.01,5.84,2.22,5.61,2.8,9.47,2.57,17.06-.12,4.56-3.74,8.53-6.19,10.05-2.1,1.4-4.56,1.75-6.31,1.75h0Zm-1.4-35.18c-.7,0-1.17,.12-1.4,.23h0s-3.04,1.52-5.49,8.3c-2.57,6.66-3.74,15.54,.23,20.1,3.51,3.97,6.54,6.54,8.18,6.54h0c1.64,0,4.09-.47,6.19-1.75,2.45-1.52,5.96-5.38,6.08-9.93,.23-7.71-.35-11.57-2.57-17.06-.58-1.52-2.22-4.21-6.9-5.73-1.64-.47-3.27-.7-4.32-.7Z"/></g><g><path class="cls-33" d="M174.28,421.05s15.19-3.27,17.53,14.96c2.22,18.12-7.48,20.8-7.48,20.8,0,0-1.17,.58-4.21,.93l-3.04,.35s5.61-7.25,5.73-14.14c0-6.9-.35-11.22-1.52-13.56-1.4-2.34-7.01-9.35-7.01-9.35Z"/><path class="cls-33" d="M176.73,458.22l.12-.23c0-.12,5.61-7.25,5.61-14.14,0-7.25-.47-11.34-1.52-13.44-1.17-2.34-6.78-9.23-6.78-9.23l-.12-.12h.12c.12,0,6.19-1.29,11.22,2.34,3.51,2.57,5.73,6.78,6.43,12.62,.7,5.14,.7,12.39-2.92,17.3-2.1,2.8-4.44,3.62-4.67,3.62-.12,.12-1.29,.58-4.21,.93l-3.27,.35Zm-2.22-37.05c.82,.93,5.61,7.01,6.78,9.12,1.17,2.22,1.64,6.19,1.52,13.56,0,6.31-4.67,12.86-5.61,14.02l2.8-.35c3.04-.35,4.21-.93,4.21-.93h0s2.45-.7,4.56-3.51c1.99-2.69,4.09-7.83,2.92-17.06-.7-5.84-2.92-10.05-6.43-12.51-4.44-3.27-9.82-2.57-10.75-2.34Z"/></g><path class="cls-36" d="M172.41,421.05s-6.43,1.87-9.23,9.12c-2.8,7.25-4.21,16.36-.23,21.39,4.09,5.03,6.9,7.01,8.53,7.01s4.21,.35,6.66-1.05c2.34-1.4,7.13-5.84,6.78-10.75-.35-4.91,.58-14.02-2.34-19.4-3.04-5.49-8.88-7.13-10.17-6.31Z"/><path class="cls-36" d="M172.41,421.05s-6.19,2.1-8.77,9.35c-2.45,7.25-3.86,16.01-.35,21.04s6.9,7.01,8.3,7.01,3.97,.35,6.08-1.05c2.1-1.4,6.19-4.91,6.43-9.82,.35-8.65-.47-15.08-2.92-20.45-2.45-5.26-7.71-6.9-8.77-6.08Z"/><g><path class="cls-30" d="M172.64,421.75c-.23-.35,1.52-3.62,1.64-5.03,0-.35-.23-1.52-.12-1.75,.23-.47,2.22,.12,2.22,.12l-.12,5.61s.47,.47-.35,.82c-.93,.47-3.04,.7-3.27,.23Z"/><path class="cls-30" d="M173.58,422.1c-.47,0-.93-.12-1.05-.23h0c-.12-.23,.12-.7,.58-1.99,.47-1.05,.93-2.45,1.05-3.16,0-.12,0-.35-.12-.58-.12-.58-.12-1.05,0-1.17,.23-.47,1.75-.12,2.34,.12h.12l-.12,5.73c0,.12,.12,.23,.12,.47s-.23,.35-.47,.47c-.47,.12-1.17,.35-1.87,.35h-.58Zm-.82-.35c.12,.35,2.22,.23,3.04-.23,.23-.12,.35-.23,.35-.35s-.12-.35-.12-.35h0l.12-5.61c-.93-.23-1.87-.35-1.99-.12-.12,.12,0,.7,.12,1.05,0,.23,.12,.47,.12,.58,0,.7-.58,1.99-1.05,3.16-.35,.82-.7,1.64-.58,1.87Z"/></g></g><g><path class="cls-1" d="M601.41,415.14c-3.04,5.61-4.56,9.7-6.31,18.93-1.05,5.26,1.17,10.28,2.69,12.15,1.52,1.99,3.51,2.57,4.79,2.8s4.09-1.4,8.41-5.96c4.32-4.56,5.61-14.49,5.14-22.67-.47-8.18-2.57-10.28-2.57-10.28-.82-1.05-8.65-1.52-12.15,5.03Z"/><path class="cls-1" d="M602.46,449.15c-1.29-.35-3.27-.93-4.79-2.8-1.64-2.1-3.74-7.13-2.69-12.27,1.75-8.65,3.16-12.97,6.31-18.93,2.57-4.79,7.01-5.61,8.88-5.73,1.64-.12,3.04,.12,3.39,.58,.12,0,.58,.58,1.17,2.1,.47,1.52,1.17,4.09,1.4,8.3,.47,7.95-.7,18.12-5.14,22.79-3.74,3.97-6.66,6.08-8.18,6.08-.12,0-.23-.12-.35-.12Zm7.71-39.39c-1.87,.12-6.31,.93-8.77,5.61-3.16,5.96-4.56,10.17-6.31,18.93-.93,5.03,1.05,9.93,2.69,12.04,1.4,1.75,3.39,2.34,4.67,2.69,1.4,.23,4.44-1.99,8.3-5.96,4.44-4.56,5.49-14.61,5.14-22.56-.35-8.06-2.45-10.28-2.45-10.28h0c-.23-.35-1.17-.58-2.45-.58-.23,0-.47,0-.82,.12Z"/><path class="cls-21" d="M623.26,422.5c.47,2.8,0,7.6-1.87,15.19-1.87,7.6-9.23,14.38-9.23,14.38l2.92,.23c2.8,.35,4.09-.12,4.09-.12,0,0,9.58-.93,12.27-21.39,2.69-20.45-12.15-19.99-12.15-19.99,0,0,3.51,8.88,3.97,11.69Z"/><path class="cls-21" d="M615.08,452.42l-3.16-.35,.12-.12c0-.12,7.36-6.9,9.12-14.38,1.87-7.48,2.45-12.39,1.99-15.19-.47-2.8-3.97-11.57-3.97-11.69v-.12h.12s5.26-.12,8.88,3.97c3.16,3.51,4.32,9,3.39,16.25-.7,5.84-2.57,13.79-7.13,18.47-2.69,2.69-5.03,3.04-5.26,3.04-.12,0-.82,.23-2.34,.23-.47,0-1.05,0-1.75-.12Zm8.3-30.04c.47,2.92-.12,7.83-2.1,15.43-1.64,6.9-7.95,13.21-9,14.26l2.69,.23c2.8,.23,4.09-.12,4.09-.12h0c.12-.12,2.45-.35,5.14-3.04,4.56-4.67,6.43-12.51,7.13-18.35,.93-7.13-.12-12.51-3.27-16.01-3.27-3.62-7.83-3.86-8.65-3.86,.47,1.05,3.51,8.88,3.97,11.45Z"/><path class="cls-27" d="M610.06,419.35c-1.64,2.34-3.16,7.13-4.91,14.84-1.75,7.83,2.22,17.41,2.22,17.41,0,0-1.75-.47-3.51-1.4-2.45-1.4-3.51-1.87-3.51-1.87,0,0-7.71-4.79-1.05-24.66s19.17-13.21,19.17-13.21c0,0-6.78,6.54-8.41,8.88Z"/><path class="cls-27" d="M607.25,451.84s-1.75-.47-3.51-1.4c-2.45-1.4-3.51-1.87-3.51-1.87-.12-.12-1.99-1.29-3.16-5.03-1.87-6.19,0-14.14,1.99-19.87,2.45-7.25,5.96-11.8,10.4-13.56,4.79-1.99,9,.23,9,.23l.12,.12h-.12c-.12,0-6.78,6.66-8.41,9-1.52,2.22-3.04,6.66-4.91,14.84-.82,3.97-.23,8.53,.47,11.57,.7,3.27,1.75,5.73,1.75,5.73l.12,.23h-.23Zm2.34-41.37c-4.32,1.75-7.83,6.19-10.28,13.44-1.87,5.73-3.86,13.67-1.99,19.75,1.05,3.62,3.04,4.91,3.04,4.91,0,0,1.17,.47,3.51,1.87,1.29,.7,2.8,1.17,3.27,1.29-.58-1.4-3.74-10.17-2.1-17.3,1.87-8.3,3.27-12.62,4.91-14.84,1.52-2.22,7.48-8.18,8.3-9-.7-.35-4.44-1.99-8.65-.12Z"/><path class="cls-21" d="M610.17,415.96c-3.86,5.49-5.49,15.78-7.13,21.27s1.29,11.34,3.04,13.44c1.75,2.1,4.21,2.22,5.49,2.57,1.29,.35,4.44-1.4,9.23-6.19,4.79-4.79,5.96-15.31,5.49-23.84-.58-8.65-5.73-12.04-5.73-12.04-.93-1.17-6.54-.7-10.4,4.79Z"/><path class="cls-17" d="M611.11,416.19c-3.62,5.49-4.91,11.57-6.9,21.27-1.05,5.61,.82,11.22,2.34,13.21,1.52,1.99,3.62,2.1,4.79,2.34,1.17,.23,3.86-1.64,8.3-6.43,4.44-4.79,5.73-15.31,5.49-23.84-.23-8.53-4.67-11.8-4.67-11.8-.7-1.05-5.73-.23-9.35,5.26Z"/><path class="cls-30" d="M616.49,410.46l-.47-4.91s.93-1.52,1.29-1.4c1.75,.7,2.8,6.78,2.8,6.78,0,0-1.17,.23-1.52,.23-3.39,0-1.99-.7-2.1-.7Z"/><g><path class="cls-33" d="M600.12,434.54c1.17,2.22,1.75,6.19,1.64,12.74-.12,6.54-5.61,13.32-5.61,13.32l2.8-.35c2.92-.35,3.97-.93,3.97-.93,0,0,9.12-2.57,7.01-19.63s-16.25-14.02-16.25-14.02c0,0,5.38,6.54,6.43,8.88Z"/><path class="cls-33" d="M596.03,460.48c.12-.12,5.61-6.9,5.61-13.32,0-6.54-.47-10.52-1.64-12.74-1.05-2.22-6.43-8.65-6.43-8.77l-.12-.12h.12c.12,0,5.61-1.17,10.28,2.1,3.39,2.45,5.38,6.43,6.08,12.04,1.05,8.88-.82,13.67-2.69,16.25-1.99,2.69-4.09,3.39-4.32,3.39-.12,.12-1.29,.58-3.97,.93l-3.04,.35,.12-.12Zm-2.1-34.83c.82,.93,5.38,6.66,6.43,8.65,1.17,2.22,1.64,6.19,1.64,12.74-.12,5.84-4.56,12.04-5.49,13.21l2.57-.23c2.8-.23,3.86-.82,3.86-.82h0s2.22-.7,4.21-3.39c3.27-4.56,3.27-11.22,2.69-16.13-.7-5.49-2.69-9.47-5.96-11.8-2.69-1.99-5.73-2.34-7.71-2.34-1.17,0-1.99,.12-2.22,.12Z"/></g><g><path class="cls-36" d="M571.96,431.97c-2.1,5.26-2.8,9-2.57,17.06,.12,4.56,3.97,8.41,6.19,9.82,2.34,1.4,4.79,1.64,6.31,1.64,1.52,0,4.32-1.87,8.3-6.43,3.97-4.56,2.92-13.09,.35-19.99-2.57-6.78-5.61-8.3-5.61-8.3-1.17-.82-10.4,.12-12.97,6.19Z"/><path class="cls-36" d="M582.01,460.84c-1.75,0-4.21-.35-6.31-1.75-2.45-1.52-6.08-5.49-6.19-10.05-.23-7.6,.35-11.45,2.57-17.06,.58-1.52,2.34-4.32,7.01-5.84,2.57-.82,5.26-.93,5.96-.47,.23,.12,3.16,1.64,5.61,8.41,2.45,6.78,3.62,15.54-.35,20.22-3.51,4.09-6.54,6.54-8.3,6.54h0Zm-2.92-34.48c-4.67,1.52-6.31,4.21-6.9,5.73-2.22,5.49-2.8,9.35-2.57,17.06,.12,4.56,3.62,8.41,6.08,9.93,2.1,1.29,4.56,1.75,6.19,1.75h0c1.64,0,4.67-2.57,8.18-6.54,3.97-4.56,2.8-13.44,.23-20.1-2.45-6.78-5.49-8.3-5.49-8.3h0c-.23-.12-.7-.23-1.4-.23-1.05,0-2.69,.23-4.32,.7Z"/></g><g><path class="cls-33" d="M584,434.54c-1.17,2.34-1.52,6.66-1.52,13.56,.12,6.9,5.73,14.14,5.73,14.14l-3.04-.35c-3.04-.35-4.21-.93-4.21-.93,0,0-9.7-2.69-7.48-20.8,2.34-18.23,17.53-14.96,17.53-14.96,0,0-5.61,7.01-7.01,9.35Z"/><path class="cls-33" d="M585.28,462c-2.92-.35-4.09-.82-4.21-.93-.23,0-2.57-.82-4.67-3.62-3.62-4.91-3.62-12.15-2.92-17.3,.7-5.84,2.92-10.05,6.43-12.62,5.03-3.62,11.1-2.34,11.22-2.34h.12l-.12,.12s-5.61,6.9-6.78,9.23c-1.05,2.1-1.52,6.19-1.52,13.44,0,6.9,5.61,14.02,5.61,14.14l.12,.23-3.27-.35Zm-5.26-34.36c-3.51,2.45-5.73,6.66-6.43,12.51-1.17,9.23,.93,14.38,2.92,17.06,2.1,2.8,4.56,3.51,4.56,3.51h0s1.17,.58,4.21,.93l2.8,.35c-.93-1.17-5.61-7.71-5.61-14.02-.12-7.36,.35-11.34,1.52-13.56,1.17-2.1,5.96-8.18,6.78-9.12-.93-.23-6.31-.93-10.75,2.34Z"/></g><path class="cls-36" d="M582.71,431.5c-2.92,5.38-1.99,14.49-2.34,19.4-.35,4.91,4.44,9.35,6.78,10.75,2.45,1.4,5.03,1.05,6.66,1.05s4.44-1.99,8.53-7.01c3.97-5.03,2.57-14.14-.23-21.39-2.8-7.25-9.23-9.12-9.23-9.12-1.29-.82-7.13,.82-10.17,6.31Z"/><path class="cls-36" d="M584.11,431.27c-2.45,5.38-3.27,11.8-2.92,20.45,.23,4.91,4.32,8.41,6.43,9.82,2.1,1.4,4.67,1.05,6.08,1.05,1.4,0,4.79-1.99,8.3-7.01,3.51-5.03,2.1-13.79-.35-21.04-2.57-7.25-8.77-9.35-8.77-9.35-1.05-.82-6.31,.82-8.77,6.08Z"/><g><path class="cls-30" d="M589.37,425.66c-.82-.35-.35-.82-.35-.82l-.12-5.61s1.99-.58,2.22-.12c.12,.23-.12,1.4-.12,1.75,.12,1.4,1.87,4.67,1.64,5.03-.23,.47-2.34,.23-3.27-.23Z"/><path class="cls-30" d="M591.12,426.24c-.7,0-1.4-.23-1.87-.35-.23-.12-.47-.23-.47-.47s.12-.35,.12-.47l-.12-5.73h.12c.58-.23,2.1-.58,2.34-.12,.12,.12,.12,.58,0,1.17-.12,.23-.12,.47-.12,.58,.12,.7,.58,2.1,1.05,3.16,.47,1.29,.7,1.75,.58,1.99h0c-.12,.12-.58,.23-1.05,.23h-.58Zm.82-2.22c-.47-1.17-1.05-2.45-1.05-3.16,0-.12,.12-.35,.12-.58,.12-.35,.23-.93,.12-1.05-.12-.23-1.05-.12-1.99,.12l.12,5.61h0s-.12,.23-.12,.35c0,.12,.12,.23,.35,.35,.82,.47,2.92,.58,3.04,.23,.12-.23-.23-1.05-.58-1.87Z"/></g></g><g><path id="path844" class="cls-32" d="M198.7,72.04c-1.88,.85-3.72,1.79-5.5,2.82-1.78,1.01-3.45,2.15-5.03,3.42-1.55,1.23-2.93,2.65-4.1,4.25-1.09,1.58-1.86,3.35-2.24,5.24l-.25,1.17-1.08-.39c-2.73-1.06-5.63-1.67-8.57-1.79-3,.06-6,.46-8.91,1.2,2.76-1.41,5.76-2.31,8.85-2.65,1.58-.14,3.17-.07,4.73,.2,1.54,.26,3.06,.64,4.55,1.15l-1.31,.79c.37-2.21,1.26-4.29,2.59-6.1,1.31-1.72,2.89-3.23,4.67-4.46,3.49-2.38,7.43-4.03,11.58-4.85h0Z"/><path id="path846" class="cls-32" d="M275.53,65.56c-1.34,1.51-2.71,2.9-3.94,4.36-.61,.71-1.17,1.46-1.68,2.24-.49,.72-.89,1.51-1.18,2.34l-.3,.92-.92-.23c-.64-.11-1.3-.11-1.93,0-.72,.09-1.47,.23-2.22,.4-.75,.18-1.51,.35-2.27,.55s-1.52,.39-2.27,.67c.56-.6,1.2-1.1,1.91-1.51,.69-.43,1.41-.81,2.16-1.13,.76-.34,1.54-.61,2.35-.79,.9-.26,1.85-.3,2.76-.15l-1.22,.7c.7-2.02,1.95-3.82,3.6-5.19,1.53-1.34,3.27-2.42,5.15-3.17h0Z"/><path id="path848" class="cls-32" d="M105.96,44.35c-1.76,1.01-3.51,1.87-5.13,2.86-.81,.47-1.58,.99-2.33,1.57-.7,.53-1.33,1.15-1.87,1.83l-.6,.77-.79-.51c-.56-.3-1.18-.51-1.82-.63-.71-.14-1.46-.25-2.23-.34-.76-.07-1.53-.16-2.31-.21-.78-.06-1.55-.13-2.37-.11,.74-.37,1.51-.64,2.3-.81,.79-.19,1.6-.3,2.41-.37,.83-.08,1.66-.07,2.48,0,.93,.06,1.85,.32,2.66,.76l-1.38,.26c1.32-1.68,3.09-2.98,5.08-3.74,1.88-.77,3.88-1.23,5.9-1.33h0Z"/></g><g><path class="cls-5" d="M154.22,450.78c0-.55-.14-1.09-.14-1.78,.96,.68,.82,1.92,1.51,2.6,.82,1.64,1.51,3.28,2.33,5.06-1.23,.27-1.92,.14-1.92-1.37,0-1.64-.82-3.15-1.78-4.52Z"/><path class="cls-39" d="M163.8,446.54c1.51-.41,2.46-1.92,4.24-2.05-.96-.68-1.78-.55-2.46-.82-.27-.14-.96,0-.82-.55,.41-1.78-.96-.55-1.23-.55-.68,.14-1.51,.82-2.33,0,.68-.96,1.37-1.78,2.05-2.74,.27-.41,1.23-.68,.82-1.37-.41-.55-.96,.14-1.51,.14-.14,0-.14-.14-.14-.14-.14-.82,.96-1.92,.55-2.05-1.64-.55-.55-1.51-.55-2.19,0-.55,.27-.96-.14-1.64-.82,.96-1.78,1.64-2.74,2.33-.41,.27-.96,.55-1.23,0-.55-.96-.82-.27-1.09,.14-.82,1.09-1.51,2.19-2.46,3.7,0-1.78-.27-3.15,.14-4.38,.14-.27,.41-.82,0-.96-.27-.14-.68,.14-.82,.27-1.09,1.09-1.51,.41-1.64-.82,0-.27,.14-.68-.27-.96-1.64,1.64-2.05-.27-2.87-1.09-.82,.82,.27,2.87-2.05,2.33q.96,2.46-1.37,3.01c.82,1.37,1.92,2.74,2.33,4.24l-.14,.14c-1.09,0-2.05-.55-3.01-1.23-.27-.14-.68-.68-.68-.27-.55,1.92-2.33,.14-3.28,1.09-.14,.14-.68-.27-.82,.14s.14,.68,.41,.82c.27,.41,.68,.82,.27,1.09-1.09,.82-.27,1.09,.41,1.37,.41,.14,.68,.41,.68,.82,0,.55-.41,.55-.68,.68s-.68,0-.82,.55c1.09,.41,2.19,.68,3.15,1.09,.55,.14,1.09,.68,.41,1.23-1.51,.96-2.05,2.74-3.7,3.56-.27,.14-.41,.27-.27,.68,.55,.27,.96,0,1.51-.14,.41-.14,1.23-.27,1.23,0,.27,1.64,1.09,.96,1.92,.55,.41,.55-.41,1.09,0,1.64,.96-.55,2.05-1.09,3.01-1.51,.82-.41,1.23-.27,1.09,.82-.14,.82-.14,1.64-.14,2.74,1.09-.82,1.37-1.78,1.78-2.6,.14-.27,.68-1.23,.96-.55,.82,1.78,.96,0,1.09-.14,.27-.96,1.09-1.51,1.51-2.33,0-.55-.14-1.09-.14-1.78,.96,.68,.82,1.92,1.51,2.6,2.19,.55,4.65,0,6.71,1.23,0,0,.14-.14,.27-.27-.68-1.37-2.46-1.78-3.28-3.15,1.09-.68,2.19-.27,3.15-.27,.41,0,.96,.14,1.23-.27s-.14-.82-.41-1.09c-.41-.68,.14-.96,.68-1.09Z"/></g><g><path class="cls-34" d="M609.84,455.19c.82-.68,.55-1.78,1.37-2.46,.14,.55,.14,1.09,0,1.64-.96,1.37-1.78,2.74-1.78,4.52,0,1.51-.82,1.64-2.05,1.37,.82-1.78,1.92-3.28,2.46-5.06Z"/><path class="cls-3" d="M623.11,453.83c-.27-.14-.68-.27-.55-.41,.82-.96-.27-1.09-.68-1.37s-.82-.41-.82-.82,.55-.55,.96-.82c.96-.41,2.05-.41,3.01-1.09-.55-.41-1.37-.27-1.51-.96-.14-.82,.68-.82,1.09-1.09s.82-.41,.14-.82c-.55-.41-.41-.96,0-1.37,.27-.27,.55-.55,.41-.82-.14-.41-.55-.14-.82-.14-.96-.14-2.33,.14-2.6-.41-.96-1.51-1.37-.27-2.05,0-.68,.41-1.37,.68-2.19,.68l-.14-.14c.41-1.64,1.64-2.87,2.19-4.24-.68-.41-1.92,.27-2.05-.68-.14-.68,.41-1.51,.68-2.33-2.6,.82-1.09-1.78-2.19-2.19-.68,1.09-1.37,2.33-2.87,1.09-.27,.82,.27,1.78-.68,2.19-.82,.27-1.09-1.09-2.05-.68,.55,1.64,.55,3.28,.27,5.2-.96-1.37-1.64-2.6-2.46-3.7-.27-.27-.55-.96-.96-.14-.41,.82-.96,.55-1.37,.14-.96-.68-1.78-1.37-2.74-2.19-.41,.96,.14,1.64,.27,2.46,0,.41,.41,.96-.27,1.09-.96,.14-.55,.41-.27,.96,.27,.41,.55,.82,.41,1.37-.27,.14-.41,.14-.68,0-.41-.14-.96-.41-1.23,0s.27,.82,.55,1.09c.96,.82,1.51,1.92,2.33,3.01-.96,.68-1.78-.14-2.46-.14-.27,0-1.09-.55-.96,.14,.14,1.09-.55,.82-1.09,.96-.68,.27-1.37,0-2.05,.68,1.51,.55,2.6,1.37,3.83,2.05,.82,.41,1.37,.55,.55,1.51-.68,.82-.27,1.23,.68,1.23,.82,0,1.64-.14,2.46-.14,.27,0,.68,.14,.82,.27,.27,.41-.27,.68-.55,.82-.82,.82-2.05,1.23-2.6,2.46,.82,.14,1.23-.27,1.78-.41,.82-.27,1.78-.82,2.33-.55,1.09,.55,2.05-.14,3.01-.14,.82-.68,.55-1.78,1.37-2.46,.14,.55,.14,1.09,0,1.64,.68,.82,1.37,1.51,1.64,2.6,.14,.27,.41,.96,.68,.27,.82-1.64,1.09,0,1.23,.27,.55,.68,.68,1.78,1.78,2.33-.14-.96-.14-1.78-.14-2.6-.14-1.09,.41-1.09,1.23-.82,.96,.41,1.78,.96,2.74,1.37,.14,0,.27,.14,.27,.14,.27-.68-.41-1.09-.14-1.51,.68-.55,1.37,1.23,1.78-.14,.27-.96,.96-.68,1.51-.55s1.09,.41,1.64,0c-.68-1.23-1.51-1.78-2.46-2.19Z"/></g><line class="cls-12" x1="154.32" y1="199.56" x2="216.43" y2="199.56"/><line class="cls-12" x1="111.92" y1="284.57" x2="154.32" y2="284.57"/><line class="cls-12" x1="288.17" y1="387.73" x2="337.07" y2="387.73"/><text class="cls-25" transform="translate(237.2 83.82)"><tspan x="0" y="0">Clo</tspan><tspan class="cls-24" x="108.53" y="0">s</tspan><tspan x="144.34" y="0">ember</tspan></text></svg>